HIERARCHY
ROOT Root
{
	OFFSET 	 0.0	 0.0339374542236	 -1.05138683319
	CHANNELS 6 Xposition Yposition Zposition Xrotation Yrotation Zrotation 
	JOINT pelvis
	{
		OFFSET 	 6.38852066941e-16	 10.7809247971	 0.347678780556
		CHANNELS 3 Xrotation Yrotation Zrotation 
		JOINT spine_01
		{
			OFFSET 	 2.15063947489e-17	 0.942988425824	 -0.351226080268
			CHANNELS 3 Xrotation Yrotation Zrotation 
			JOINT spine_02
			{
				OFFSET 	 -5.70808307135e-18	 0.779190057964	 0.0932200708862
				CHANNELS 3 Xrotation Yrotation Zrotation 
				JOINT spine_03
				{
					OFFSET 	 1.02887354752e-17	 0.696201319542	 -0.168027801688
					CHANNELS 3 Xrotation Yrotation Zrotation 
					JOINT clavicle_l
					{
						OFFSET 	 0.256189525127	 2.96373746372	 0.68149536826
						CHANNELS 3 Xrotation Yrotation Zrotation 
						JOINT upperarm_l
						{
							OFFSET 	 1.85771695899	 0.0909042461984	 -0.150086101073
							CHANNELS 3 Xrotation Yrotation Zrotation 
							JOINT lowerarm_l
							{
								OFFSET 	 2.87784648222	 -0.0754280152214	 -0.0315106206421
								CHANNELS 3 Xrotation Yrotation Zrotation 
								JOINT hand_l
								{
									OFFSET 	 2.98128178948	 0.141717875828	 0.250993715501
									CHANNELS 3 Xrotation Yrotation Zrotation 
									JOINT index_01_l
									{
										OFFSET 	 1.15663822408	 0.0457534481371	 0.473102335377
										CHANNELS 3 Xrotation Yrotation Zrotation 
										JOINT index_02_l
										{
											OFFSET 	 0.302074439497	 -0.025335318499	 0.0138552778893
											CHANNELS 3 Xrotation Yrotation Zrotation 
											JOINT index_03_l
											{
												OFFSET 	 0.269592278843	 -0.0237255148346	 -0.00121772580535
												CHANNELS 3 Xrotation Yrotation Zrotation 
												End Site
												{
													OFFSET 	 0	 0	 0
												}
											}
										}
									}
									JOINT middle_01_l
									{
										OFFSET 	 1.18521507727	 0.0786876476944	 0.189697050651
										CHANNELS 3 Xrotation Yrotation Zrotation 
										JOINT middle_02_l
										{
											OFFSET 	 0.387212754475	 -0.053749091322	 0.015749153419
											CHANNELS 3 Xrotation Yrotation Zrotation 
											JOINT middle_03_l
											{
												OFFSET 	 0.31874750661	 -0.0380020187941	 0.0329369132087
												CHANNELS 3 Xrotation Yrotation Zrotation 
												End Site
												{
													OFFSET 	 0	 0	 0
												}
											}
										}
									}
									JOINT pinky_01_l
									{
										OFFSET 	 1.08335597669	 -0.0145301765481	 -0.250154350003
										CHANNELS 3 Xrotation Yrotation Zrotation 
										JOINT pinky_02_l
										{
											OFFSET 	 0.250843038846	 -0.00994109614714	 0.00347298104278
											CHANNELS 3 Xrotation Yrotation Zrotation 
											JOINT pinky_03_l
											{
												OFFSET 	 0.18144319977	 -0.00759315172089	 0.0111761657378
												CHANNELS 3 Xrotation Yrotation Zrotation 
												End Site
												{
													OFFSET 	 0	 0	 0
												}
											}
										}
									}
									JOINT ring_01_l
									{
										OFFSET 	 1.14998157711	 0.0628223335289	 -0.0482877833854
										CHANNELS 3 Xrotation Yrotation Zrotation 
										JOINT ring_02_l
										{
											OFFSET 	 0.342709546068	 -0.0443992701335	 0.00894009826856
											CHANNELS 3 Xrotation Yrotation Zrotation 
											JOINT ring_03_l
											{
												OFFSET 	 0.287706391335	 -0.0316219422097	 0.0327815133756
												CHANNELS 3 Xrotation Yrotation Zrotation 
												End Site
												{
													OFFSET 	 0	 0	 0
												}
											}
										}
									}
									JOINT thumb_01_l
									{
										OFFSET 	 0.392130877842	 -0.0356731576726	 0.351106260019
										CHANNELS 3 Xrotation Yrotation Zrotation 
										JOINT thumb_02_l
										{
											OFFSET 	 0.113215465483	 -0.261882824402	 0.218663407763
											CHANNELS 3 Xrotation Yrotation Zrotation 
											JOINT thumb_03_l
											{
												OFFSET 	 0.419543265914	 -0.0505867054362	 0.0619213435502
												CHANNELS 3 Xrotation Yrotation Zrotation 
												End Site
												{
													OFFSET 	 0	 0	 0
												}
											}
										}
									}
								}
							}
						}
					}
					JOINT clavicle_r
					{
						OFFSET 	 -0.256189525127	 2.96373746372	 0.68149536826
						CHANNELS 3 Xrotation Yrotation Zrotation 
						JOINT upperarm_r
						{
							OFFSET 	 -1.85771695899	 0.0909042461984	 -0.150086101073
							CHANNELS 3 Xrotation Yrotation Zrotation 
							JOINT lowerarm_r
							{
								OFFSET 	 -2.87784648222	 -0.0754280152213	 -0.0315106206421
								CHANNELS 3 Xrotation Yrotation Zrotation 
								JOINT hand_r
								{
									OFFSET 	 -2.98128148943	 0.141715961378	 0.250993562837
									CHANNELS 3 Xrotation Yrotation Zrotation 
									JOINT index_01_r
									{
										OFFSET 	 -1.15663810904	 0.045753437419	 0.473102452628
										CHANNELS 3 Xrotation Yrotation Zrotation 
										JOINT index_02_r
										{
											OFFSET 	 -0.302073475922	 -0.0253334087735	 0.0138550625421
											CHANNELS 3 Xrotation Yrotation Zrotation 
											JOINT index_03_r
											{
												OFFSET 	 -0.269593237626	 -0.0237274196022	 -0.00121712009622
												CHANNELS 3 Xrotation Yrotation Zrotation 
												End Site
												{
													OFFSET 	 0	 0	 0
												}
											}
										}
									}
									JOINT middle_01_r
									{
										OFFSET 	 -1.18521497018	 0.0786876460204	 0.189696980441
										CHANNELS 3 Xrotation Yrotation Zrotation 
										JOINT middle_02_r
										{
											OFFSET 	 -0.387212756431	 -0.053750997038	 0.0157493734715
											CHANNELS 3 Xrotation Yrotation Zrotation 
											JOINT middle_03_r
											{
												OFFSET 	 -0.318747528233	 -0.0380001127906	 0.0329366567882
												CHANNELS 3 Xrotation Yrotation Zrotation 
												End Site
												{
													OFFSET 	 0	 0	 0
												}
											}
										}
									}
									JOINT pinky_01_r
									{
										OFFSET 	 -1.08335589344	 -0.0145301697846	 -0.250154214533
										CHANNELS 3 Xrotation Yrotation Zrotation 
										JOINT pinky_02_r
										{
											OFFSET 	 -0.250843033196	 -0.00994110022476	 0.00347281147677
											CHANNELS 3 Xrotation Yrotation Zrotation 
											JOINT pinky_03_r
											{
												OFFSET 	 -0.18144321343	 -0.00759124779723	 0.0111764121432
												CHANNELS 3 Xrotation Yrotation Zrotation 
												End Site
												{
													OFFSET 	 0	 0	 0
												}
											}
										}
									}
									JOINT ring_01_r
									{
										OFFSET 	 -1.14998148145	 0.0628204304061	 -0.0482875193982
										CHANNELS 3 Xrotation Yrotation Zrotation 
										JOINT ring_02_r
										{
											OFFSET 	 -0.342709548784	 -0.0443954569774	 0.00893990059337
											CHANNELS 3 Xrotation Yrotation Zrotation 
											JOINT ring_03_r
											{
												OFFSET 	 -0.287705416227	 -0.0316238485099	 0.0327818198133
												CHANNELS 3 Xrotation Yrotation Zrotation 
												End Site
												{
													OFFSET 	 0	 0	 0
												}
											}
										}
									}
									JOINT thumb_01_r
									{
										OFFSET 	 -0.392130831669	 -0.0356712611488	 0.351106064243
										CHANNELS 3 Xrotation Yrotation Zrotation 
										JOINT thumb_02_r
										{
											OFFSET 	 -0.113170621271	 -0.2619094889	 0.218656214033
											CHANNELS 3 Xrotation Yrotation Zrotation 
											JOINT thumb_03_r
											{
												OFFSET 	 -0.419534697865	 -0.0506362913564	 0.0619445452714
												CHANNELS 3 Xrotation Yrotation Zrotation 
												End Site
												{
													OFFSET 	 0	 0	 0
												}
											}
										}
									}
								}
							}
						}
					}
					JOINT neck_01
					{
						OFFSET 	 -3.01528542186e-17	 3.80313108059	 0.492005246871
						CHANNELS 3 Xrotation Yrotation Zrotation 
						JOINT head
						{
							OFFSET 	 -2.72401060369e-17	 1.02467725502	 0.296602891848
							CHANNELS 3 Xrotation Yrotation Zrotation 
							End Site
							{
								OFFSET 	 0	 0	 0
							}
						}
					}
				}
			}
		}
		JOINT thigh_l
		{
			OFFSET 	 1.24257910252	 -0.172101971279	 -0.11459064121
			CHANNELS 3 Xrotation Yrotation Zrotation 
			JOINT calf_l
			{
				OFFSET 	 0.109058736598	 -4.72226188226	 0.361554468844
				CHANNELS 3 Xrotation Yrotation Zrotation 
				JOINT foot_l
				{
					OFFSET 	 0.124173904175	 -5.13336650795	 -0.259371473812
					CHANNELS 3 Xrotation Yrotation Zrotation 
					JOINT ball_l
					{
						OFFSET 	 0.0314643416258	 -0.713147202041	 1.46711890346
						CHANNELS 3 Xrotation Yrotation Zrotation 
						End Site
						{
							OFFSET 	 0	 0	 0
						}
					}
				}
			}
		}
		JOINT thigh_r
		{
			OFFSET 	 -1.24257910252	 -0.172101971279	 -0.11459064121
			CHANNELS 3 Xrotation Yrotation Zrotation 
			JOINT calf_r
			{
				OFFSET 	 -0.109058540048	 -4.72226084298	 0.361554428702
				CHANNELS 3 Xrotation Yrotation Zrotation 
				JOINT foot_r
				{
					OFFSET 	 -0.124173846026	 -5.13336650247	 -0.259371599449
					CHANNELS 3 Xrotation Yrotation Zrotation 
					JOINT ball_r
					{
						OFFSET 	 -0.0314641816446	 -0.713146832521	 1.46711872033
						CHANNELS 3 Xrotation Yrotation Zrotation 
						End Site
						{
							OFFSET 	 0	 0	 0
						}
					}
				}
			}
		}
	}
}

MOTION
Frames: 7
Frame Time: 0.013889
0.202552772072 7.92190752029 -0.367658840585 -0.0 0.0 -0.0 -180.0 7.01670929853e-15 -180.0 -0.0 0.0 -0.0 -0.0 0.0 -0.0 -0.0 0.0 -0.0 -3.06382121064 -3.36679814637 -29.0876358898 6.43431030727 19.4188972497 -35.4241101676 -0.552869507347 -12.3782875856 -44.9375297663 -0.0 0.0 -0.0 -0.0 0.0 -0.0 -0.0 0.0 -0.0 -0.0 0.0 -0.0 -0.0 0.0 -0.0 -0.0 0.0 -0.0 -0.0 0.0 -0.0 -0.0 0.0 -0.0 -0.0 0.0 -0.0 -0.0 0.0 -0.0 -0.0 0.0 -0.0 -0.0 0.0 -0.0 -0.0 0.0 -0.0 -0.0 0.0 -0.0 -0.0 0.0 -0.0 -0.0 0.0 -0.0 -3.86557975311 15.7887247592 21.2758861908 3.69137064092 -9.35970627505 45.4460646064 -5.09170027656 24.8550207867 43.9615076774 -0.0 0.0 -0.0 -0.0 0.0 -0.0 -0.0 0.0 -0.0 -0.0 0.0 -0.0 -0.0 0.0 -0.0 -0.0 0.0 -0.0 -0.0 0.0 -0.0 -0.0 0.0 -0.0 -0.0 0.0 -0.0 -0.0 0.0 -0.0 -0.0 0.0 -0.0 -0.0 0.0 -0.0 -0.0 0.0 -0.0 -0.0 0.0 -0.0 -0.0 0.0 -0.0 -0.0 0.0 -0.0 -0.0 0.0 -0.0 -0.0 0.0 -0.0 -22.2586048219 -0.656805019827 1.21439620151 16.2206836031 -0.0363561029282 -4.6904991779 -0.0 0.0 -0.0 -0.0 0.0 -0.0 17.3157156941 -0.833857577988 -1.83905111825 14.1698455749 0.27165394765 8.36826046626 -0.0 0.0 -0.0 -0.0 0.0 -0.0
0.186333851801 7.93293812029 -0.509403016348 -0.0 0.0 -0.0 -180.0 7.01670929853e-15 -180.0 -0.0 0.0 -0.0 -0.0 0.0 -0.0 -0.0 0.0 -0.0 -3.13337466161 -3.51592401034 -29.423945654 6.43439744953 19.4580015141 -35.3464872003 -0.51654464091 -12.2965325839 -44.7030018205 -0.0 0.0 -0.0 -0.0 0.0 -0.0 -0.0 0.0 -0.0 -0.0 0.0 -0.0 -0.0 0.0 -0.0 -0.0 0.0 -0.0 -0.0 0.0 -0.0 -0.0 0.0 -0.0 -0.0 0.0 -0.0 -0.0 0.0 -0.0 -0.0 0.0 -0.0 -0.0 0.0 -0.0 -0.0 0.0 -0.0 -0.0 0.0 -0.0 -0.0 0.0 -0.0 -0.0 0.0 -0.0 -3.75011024057 15.5759404757 20.8801725796 3.78112092847 -9.5298174591 45.5909800905 -5.08624792556 24.7710250556 44.1305064614 -0.0 0.0 -0.0 -0.0 0.0 -0.0 -0.0 0.0 -0.0 -0.0 0.0 -0.0 -0.0 0.0 -0.0 -0.0 0.0 -0.0 -0.0 0.0 -0.0 -0.0 0.0 -0.0 -0.0 0.0 -0.0 -0.0 0.0 -0.0 -0.0 0.0 -0.0 -0.0 0.0 -0.0 -0.0 0.0 -0.0 -0.0 0.0 -0.0 -0.0 0.0 -0.0 -0.0 0.0 -0.0 -0.0 0.0 -0.0 -0.0 0.0 -0.0 -21.9382263162 -0.645238691285 1.20864328727 16.9890494226 -0.076972480902 -4.97154026448 -0.0 0.0 -0.0 -0.0 0.0 -0.0 16.7856223668 -0.952313844864 -2.45672535989 15.8979837203 0.419760966624 9.07778416493 -0.0 0.0 -0.0 -0.0 0.0 -0.0
0.167394797725 7.94719902029 -0.654092069762 -0.0 0.0 -0.0 -180.0 7.01670929853e-15 -180.0 -0.0 0.0 -0.0 -0.0 0.0 -0.0 -0.0 0.0 -0.0 -3.20804591892 -3.69190351805 -29.7474494791 6.42568010521 19.4723866075 -35.2693489807 -0.48958077367 -12.2373649613 -44.4991514336 -0.0 0.0 -0.0 -0.0 0.0 -0.0 -0.0 0.0 -0.0 -0.0 0.0 -0.0 -0.0 0.0 -0.0 -0.0 0.0 -0.0 -0.0 0.0 -0.0 -0.0 0.0 -0.0 -0.0 0.0 -0.0 -0.0 0.0 -0.0 -0.0 0.0 -0.0 -0.0 0.0 -0.0 -0.0 0.0 -0.0 -0.0 0.0 -0.0 -0.0 0.0 -0.0 -0.0 0.0 -0.0 -3.63212633876 15.3279800948 20.4866132693 3.84669131625 -9.65146296666 45.7066281912 -5.09870957046 24.7495918419 44.263461279 -0.0 0.0 -0.0 -0.0 0.0 -0.0 -0.0 0.0 -0.0 -0.0 0.0 -0.0 -0.0 0.0 -0.0 -0.0 0.0 -0.0 -0.0 0.0 -0.0 -0.0 0.0 -0.0 -0.0 0.0 -0.0 -0.0 0.0 -0.0 -0.0 0.0 -0.0 -0.0 0.0 -0.0 -0.0 0.0 -0.0 -0.0 0.0 -0.0 -0.0 0.0 -0.0 -0.0 0.0 -0.0 -0.0 0.0 -0.0 -0.0 0.0 -0.0 -21.5862430385 -0.629924249676 1.17875849188 17.7204188148 -0.114935318695 -5.19837874532 -0.0 0.0 -0.0 -0.0 0.0 -0.0 16.1089491482 -1.06537403551 -3.11144039846 17.7604669331 0.601621665907 9.82040400607 -0.0 0.0 -0.0 -0.0 0.0 -0.0
0.146696237362 7.96108832029 -0.798913365355 -0.0 0.0 -0.0 -180.0 7.01670929853e-15 -180.0 -0.0 0.0 -0.0 -0.0 0.0 -0.0 -0.0 0.0 -0.0 -3.28299483297 -3.89442582018 -30.0168805624 6.41036194987 19.4519366175 -35.2247587253 -0.460284442946 -12.1676908872 -44.3394333908 -0.0 0.0 -0.0 -0.0 0.0 -0.0 -0.0 0.0 -0.0 -0.0 0.0 -0.0 -0.0 0.0 -0.0 -0.0 0.0 -0.0 -0.0 0.0 -0.0 -0.0 0.0 -0.0 -0.0 0.0 -0.0 -0.0 0.0 -0.0 -0.0 0.0 -0.0 -0.0 0.0 -0.0 -0.0 0.0 -0.0 -0.0 0.0 -0.0 -0.0 0.0 -0.0 -0.0 0.0 -0.0 -3.51231148258 15.0620203316 20.0866381785 3.9105393739 -9.76855120511 45.8227237817 -5.13407040009 24.7904963429 44.3913885141 -0.0 0.0 -0.0 -0.0 0.0 -0.0 -0.0 0.0 -0.0 -0.0 0.0 -0.0 -0.0 0.0 -0.0 -0.0 0.0 -0.0 -0.0 0.0 -0.0 -0.0 0.0 -0.0 -0.0 0.0 -0.0 -0.0 0.0 -0.0 -0.0 0.0 -0.0 -0.0 0.0 -0.0 -0.0 0.0 -0.0 -0.0 0.0 -0.0 -0.0 0.0 -0.0 -0.0 0.0 -0.0 -0.0 0.0 -0.0 -0.0 0.0 -0.0 -21.2284602872 -0.611464793571 1.12012769223 18.5188494349 -0.14817732679 -5.34239357438 -0.0 0.0 -0.0 -0.0 0.0 -0.0 15.2911617089 -1.17116639593 -3.80792250946 19.7352690675 0.820969179582 10.6018140997 -0.0 0.0 -0.0 -0.0 0.0 -0.0
0.101395104249 7.98844732029 -1.0799468831 -0.0 0.0 -0.0 -180.0 7.01670929853e-15 -180.0 -0.0 0.0 -0.0 -0.0 0.0 -0.0 -0.0 0.0 -0.0 -3.45244400971 -4.38264523274 -30.5425533822 6.33814114465 19.3307462991 -35.0621314739 -0.402415947144 -12.0185342238 -44.1698767294 -0.0 0.0 -0.0 -0.0 0.0 -0.0 -0.0 0.0 -0.0 -0.0 0.0 -0.0 -0.0 0.0 -0.0 -0.0 0.0 -0.0 -0.0 0.0 -0.0 -0.0 0.0 -0.0 -0.0 0.0 -0.0 -0.0 0.0 -0.0 -0.0 0.0 -0.0 -0.0 0.0 -0.0 -0.0 0.0 -0.0 -0.0 0.0 -0.0 -0.0 0.0 -0.0 -0.0 0.0 -0.0 -3.29640582344 14.4753976726 19.4036925482 4.02576775659 -9.99169443929 45.9652756673 -5.21351897743 24.9214488718 44.5801571834 -0.0 0.0 -0.0 -0.0 0.0 -0.0 -0.0 0.0 -0.0 -0.0 0.0 -0.0 -0.0 0.0 -0.0 -0.0 0.0 -0.0 -0.0 0.0 -0.0 -0.0 0.0 -0.0 -0.0 0.0 -0.0 -0.0 0.0 -0.0 -0.0 0.0 -0.0 -0.0 0.0 -0.0 -0.0 0.0 -0.0 -0.0 0.0 -0.0 -0.0 0.0 -0.0 -0.0 0.0 -0.0 -0.0 0.0 -0.0 -0.0 0.0 -0.0 -20.4140823663 -0.565865301412 0.937808984856 20.1619000287 -0.195595723339 -5.42101580507 -0.0 0.0 -0.0 -0.0 0.0 -0.0 13.3091798744 -1.31210294903 -5.12160353297 23.8858480409 1.34971231663 12.0922000492 -0.0 0.0 -0.0 -0.0 0.0 -0.0
0.0792119233724 7.99950762029 -1.21167658886 -0.0 0.0 -0.0 -180.0 7.01670929853e-15 -180.0 -0.0 0.0 -0.0 -0.0 0.0 -0.0 -0.0 0.0 -0.0 -3.54634434289 -4.67158991988 -30.785805106 6.28267788987 19.2351562922 -34.9389275291 -0.359377917935 -11.8971319187 -44.191768692 -0.0 0.0 -0.0 -0.0 0.0 -0.0 -0.0 0.0 -0.0 -0.0 0.0 -0.0 -0.0 0.0 -0.0 -0.0 0.0 -0.0 -0.0 0.0 -0.0 -0.0 0.0 -0.0 -0.0 0.0 -0.0 -0.0 0.0 -0.0 -0.0 0.0 -0.0 -0.0 0.0 -0.0 -0.0 0.0 -0.0 -0.0 0.0 -0.0 -0.0 0.0 -0.0 -0.0 0.0 -0.0 -3.19151433049 14.15306356 19.0803980087 4.08909113524 -10.1133207799 46.0448977977 -5.26979723451 25.0151194763 44.7093771239 -0.0 0.0 -0.0 -0.0 0.0 -0.0 -0.0 0.0 -0.0 -0.0 0.0 -0.0 -0.0 0.0 -0.0 -0.0 0.0 -0.0 -0.0 0.0 -0.0 -0.0 0.0 -0.0 -0.0 0.0 -0.0 -0.0 0.0 -0.0 -0.0 0.0 -0.0 -0.0 0.0 -0.0 -0.0 0.0 -0.0 -0.0 0.0 -0.0 -0.0 0.0 -0.0 -0.0 0.0 -0.0 -0.0 0.0 -0.0 -0.0 0.0 -0.0 -19.9090323108 -0.539623202373 0.831905421978 20.8592494658 -0.211644816014 -5.41806021018 -0.0 0.0 -0.0 -0.0 0.0 -0.0 12.1304119159 -1.34612030967 -5.75200909254 26.1022172269 1.65646600431 12.7614409074 -0.0 0.0 -0.0 -0.0 0.0 -0.0
0.0591630576838 8.00909782029 -1.33775527543 -0.0 0.0 -0.0 -180.0 7.01670929853e-15 -180.0 -0.0 0.0 -0.0 -0.0 0.0 -0.0 -0.0 0.0 -0.0 -3.65249347503 -5.02705496356 -30.9996311907 6.21618448251 19.1032674929 -34.8277663425 -0.340688544027 -11.8438762652 -44.2110635941 -0.0 0.0 -0.0 -0.0 0.0 -0.0 -0.0 0.0 -0.0 -0.0 0.0 -0.0 -0.0 0.0 -0.0 -0.0 0.0 -0.0 -0.0 0.0 -0.0 -0.0 0.0 -0.0 -0.0 0.0 -0.0 -0.0 0.0 -0.0 -0.0 0.0 -0.0 -0.0 0.0 -0.0 -0.0 0.0 -0.0 -0.0 0.0 -0.0 -0.0 0.0 -0.0 -0.0 0.0 -0.0 -3.09774638873 13.8430413393 18.7958340287 4.14763663701 -10.2245222538 46.1226376222 -5.30586719232 25.0806168954 44.7778136687 -0.0 0.0 -0.0 -0.0 0.0 -0.0 -0.0 0.0 -0.0 -0.0 0.0 -0.0 -0.0 0.0 -0.0 -0.0 0.0 -0.0 -0.0 0.0 -0.0 -0.0 0.0 -0.0 -0.0 0.0 -0.0 -0.0 0.0 -0.0 -0.0 0.0 -0.0 -0.0 0.0 -0.0 -0.0 0.0 -0.0 -0.0 0.0 -0.0 -0.0 0.0 -0.0 -0.0 0.0 -0.0 -0.0 0.0 -0.0 -0.0 0.0 -0.0 -19.2824414296 -0.507675024278 0.692699880854 21.3505628379 -0.215626690957 -5.36242833344 -0.0 0.0 -0.0 -0.0 0.0 -0.0 10.8397334277 -1.35381882381 -6.35844702668 28.4021888541 1.99111241445 13.3879066777 -0.0 0.0 -0.0 -0.0 0.0 -0.0
